<svg xmlns="http://www.w3.org/2000/svg">

  <!-- github -->
  <symbol id="github" viewBox="0 0 512 512">
    <g>
      <path
        d="M256,32C132.3,32,32,134.8,32,261.7c0,101.5,64.2,187.5,153.2,217.9c11.2,2.1,15.3-5,15.3-11.1 c0-5.5-0.2-19.9-0.3-39.1c-62.3,13.9-75.5-30.8-75.5-30.8c-10.2-26.5-24.9-33.6-24.9-33.6c-20.3-14.3,1.5-14,1.5-14 c22.5,1.6,34.3,23.7,34.3,23.7c20,35.1,52.4,25,65.2,19.1c2-14.8,7.8-25,14.2-30.7c-49.7-5.8-102-25.5-102-113.5 c0-25.1,8.7-45.6,23-61.6c-2.3-5.8-10-29.2,2.2-60.8c0,0,18.8-6.2,61.6,23.5c17.9-5.1,37-7.6,56.1-7.7c19,0.1,38.2,2.6,56.1,7.7 c42.8-29.7,61.5-23.5,61.5-23.5c12.2,31.6,4.5,55,2.2,60.8c14.3,16.1,23,36.6,23,61.6c0,88.2-52.4,107.6-102.3,113.3 c8,7.1,15.2,21.1,15.2,42.5c0,30.7-0.3,55.5-0.3,63c0,6.1,4,13.3,15.4,11C415.9,449.1,480,363.1,480,261.7 C480,134.8,379.7,32,256,32z" />
    </g>
  </symbol>

  <!-- google -->
  <symbol id="google" viewBox="0 0 24 24">
    <g>
      <path
        d="M12,5c1.6167603,0,3.1012573,0.5535278,4.2863159,1.4740601l3.637146-3.4699707   C17.8087769,1.1399536,15.0406494,0,12,0C7.392395,0,3.3966675,2.5999146,1.3858032,6.4098511l4.0444336,3.1929321   C6.4099731,6.9193726,8.977478,5,12,5z"
        fill="#F44336" />
      <path
        d="M23.8960571,13.5018311C23.9585571,13.0101929,24,12.508667,24,12   c0-0.8578491-0.093689-1.6931763-0.2647705-2.5H12v5h6.4862061c-0.5247192,1.3637695-1.4589844,2.5177612-2.6481934,3.319458   l4.0594482,3.204834C22.0493774,19.135437,23.5219727,16.4903564,23.8960571,13.5018311z"
        fill="#2196F3" />
      <path
        d="M5,12c0-0.8434448,0.1568604-1.6483765,0.4302368-2.3972168L1.3858032,6.4098511   C0.5043335,8.0800171,0,9.9801636,0,12c0,1.9972534,0.4950562,3.8763428,1.3582153,5.532959l4.0495605-3.1970215   C5.1484375,13.6044312,5,12.8204346,5,12z"
        fill="#FFC107" />
      <path
        d="M12,19c-3.0455322,0-5.6295776-1.9484863-6.5922241-4.6640625L1.3582153,17.532959   C3.3592529,21.3734741,7.369812,24,12,24c3.027771,0,5.7887573-1.1248169,7.8974609-2.975708l-4.0594482-3.204834   C14.7412109,18.5588989,13.4284058,19,12,19z"
        fill="#00B060" />
      <path
        d="M12,23.75c-3.5316772,0-6.7072754-1.4571533-8.9524536-3.7786865C5.2453613,22.4378052,8.4364624,24,12,24   c3.5305786,0,6.6952515-1.5313721,8.8881226-3.9592285C18.6495972,22.324646,15.4981079,23.75,12,23.75z"
        opacity="0.1" />
      <polygon opacity="0.1" points="12,14.25 12,14.5 18.4862061,14.5 18.587492,14.25  " />
      <path
        d="M23.9944458,12.1470337C23.9952393,12.0977783,24,12.0493774,24,12   c0-0.0139771-0.0021973-0.0274658-0.0022583-0.0414429C23.9970703,12.0215454,23.9938965,12.0838013,23.9944458,12.1470337z"
        fill="#E6E6E6" />
      <path d="M12,9.5v0.25h11.7855721c-0.0157471-0.0825195-0.0329475-0.1680908-0.0503426-0.25H12z" fill="#FFFFFF"
        opacity="0.2" />
      <linearGradient gradientUnits="userSpaceOnUse" id="SVGID_1_" x1="0" x2="24" y1="12" y2="12">
        <stop offset="0" style="stop-color:#FFFFFF;stop-opacity:0.2" />
        <stop offset="1" style="stop-color:#FFFFFF;stop-opacity:0" />
      </linearGradient>
      <path
        d="M23.7352295,9.5H12v5h6.4862061C17.4775391,17.121582,14.9771729,19,12,19   c-3.8659668,0-7-3.1340332-7-7c0-3.8660278,3.1340332-7,7-7c1.4018555,0,2.6939087,0.4306641,3.7885132,1.140686   c0.1675415,0.1088867,0.3403931,0.2111206,0.4978027,0.333374l3.637146-3.4699707L19.8414307,2.940979   C17.7369385,1.1170654,15.00354,0,12,0C5.3725586,0,0,5.3725586,0,12c0,6.6273804,5.3725586,12,12,12   c6.1176758,0,11.1554565-4.5812378,11.8960571-10.4981689C23.9585571,13.0101929,24,12.508667,24,12   C24,11.1421509,23.906311,10.3068237,23.7352295,9.5z"
        fill="url(#SVGID_1_)" />
      <path
        d="M15.7885132,5.890686C14.6939087,5.1806641,13.4018555,4.75,12,4.75c-3.8659668,0-7,3.1339722-7,7   c0,0.0421753,0.0005674,0.0751343,0.0012999,0.1171875C5.0687437,8.0595093,8.1762085,5,12,5   c1.4018555,0,2.6939087,0.4306641,3.7885132,1.140686c0.1675415,0.1088867,0.3403931,0.2111206,0.4978027,0.333374   l3.637146-3.4699707l-3.637146,3.2199707C16.1289062,6.1018066,15.9560547,5.9995728,15.7885132,5.890686z"
        opacity="0.1" />
      <path
        d="M12,0.25c2.9750366,0,5.6829224,1.0983887,7.7792969,2.8916016l0.144165-0.1375122   l-0.110014-0.0958166C17.7089558,1.0843592,15.00354,0,12,0C5.3725586,0,0,5.3725586,0,12   c0,0.0421753,0.0058594,0.0828857,0.0062866,0.125C0.0740356,5.5558472,5.4147339,0.25,12,0.25z"
        fill="#FFFFFF" opacity="0.2" />
    </g>
  </symbol>

  <!-- yandex -->
  <symbol id="yandex" viewBox="0 0 512 512">
    <g>
      <path
        d="M228.598,485.999v-149.23L128.871,69.126h50.133l73.491,206.369l84.544-249.494h46.09 L274.688,338.478v147.521H228.598z"
        fill="#fc3f1d" />
    </g>
  </symbol>

  <!-- facebook -->
  <symbol id="facebook" viewBox="0 0 512 512">
    <g>
      <path
        d="M512,256c0,-141.385 -114.615,-256 -256,-256c-141.385,0 -256,114.615 -256,256c0,127.777 93.616,233.685 216,252.89l0,-178.89l-65,0l0,-74l65,0l0,-56.4c0,-64.16 38.219,-99.6 96.695,-99.6c28.009,0 57.305,5 57.305,5l0,63l-32.281,0c-31.801,0 -41.719,19.733 -41.719,39.978l0,48.022l71,0l-11.35,74l-59.65,0l0,178.89c122.385,-19.205 216,-125.113 216,-252.89Z"
        fill="#0866ff" />
      <path
        d="M355.65,330l11.35,-74l-71,0l0,-48.022c0,-20.245 9.917,-39.978 41.719,-39.978l32.281,0l0,-63c0,0 -29.297,-5 -57.305,-5c-58.476,0 -96.695,35.44 -96.695,99.6l0,56.4l-65,0l0,74l65,0l0,178.89c13.033,2.045 26.392,3.11 40,3.11c13.608,0 26.966,-1.065 40,-3.11l0,-178.89l59.65,0Z"
        fill="#ffffff" />
    </g>
  </symbol>
</svg>