<?xml version="1.0" encoding="UTF-8"?>
<svg version="1.1" xmlns="http://www.w3.org/2000/svg" width="512" height="512">
<path d="M0 0 C1.30625751 -0.00538554 2.61251501 -0.01077108 3.95835608 -0.01631981 C7.55505112 -0.03068519 11.15151527 -0.02655787 14.74822247 -0.019153 C18.63860694 -0.01440133 22.52894288 -0.02694883 26.41931152 -0.03717041 C34.02992256 -0.0543253 41.64045091 -0.05520524 49.25107626 -0.04995751 C55.44063372 -0.04590805 61.63016683 -0.04736856 67.81972313 -0.05270576 C68.70230622 -0.05345419 69.5848893 -0.05420261 70.49421733 -0.05497371 C72.28748023 -0.05650527 74.08074311 -0.05804362 75.874006 -0.05958868 C92.67352767 -0.07330199 109.47300271 -0.06788447 126.27252331 -0.05640347 C141.62041281 -0.04647444 156.96818169 -0.05940812 172.31605259 -0.08333766 C188.09823416 -0.10775778 203.88035962 -0.11732924 219.66255969 -0.11068493 C228.51383292 -0.10719891 237.36501346 -0.10938382 246.21627235 -0.12693596 C253.75187844 -0.14169451 261.28732655 -0.14224595 268.82292966 -0.12486505 C272.66271967 -0.11638222 276.50222793 -0.11413828 280.34200287 -0.1295166 C284.51655783 -0.14602778 288.69043978 -0.13114913 292.86499023 -0.11352539 C294.06181059 -0.1231304 295.25863095 -0.1327354 296.49171859 -0.14263147 C314.42018056 0.01228894 329.78520774 7.02538991 342.62297058 19.38768005 C357.10693879 35.67359076 361.10341349 53.7112845 361.00392151 74.97276306 C361.00738581 76.60416745 361.01215553 78.2355695 361.01810324 79.86696672 C361.03053682 84.31199376 361.024478 88.75682563 361.01514459 93.20185304 C361.00832286 98.01038524 361.01885073 102.81888521 361.02708435 107.62741089 C361.04039069 117.03234466 361.03755779 126.4372064 361.02884643 135.84214294 C361.02205806 143.48900623 361.02115814 151.1358494 361.02441788 158.78271484 C361.02487758 159.87304355 361.02533728 160.96337226 361.0258109 162.08674124 C361.02677013 164.30205453 361.02774277 166.51736782 361.02872868 168.7326811 C361.0372735 189.48232033 361.0274627 210.23191973 361.01132758 230.98155242 C360.99792523 248.7671761 361.00025358 266.55274103 361.01408386 284.33836365 C361.03015573 305.01618844 361.03644961 325.69397836 361.02724707 346.37180853 C361.02629147 348.5787541 361.02534836 350.78569968 361.02441788 352.99264526 C361.02395505 354.07836902 361.02349222 355.16409278 361.02301537 356.28271726 C361.02043031 363.91614785 361.02478604 371.54955624 361.03185654 379.1829834 C361.0402896 388.49165478 361.03795349 397.80025032 361.0220143 407.10891306 C361.01415588 411.85396155 361.01099839 416.59888378 361.02096176 421.3439312 C361.0299597 425.69515424 361.02489262 430.04613507 361.00902911 434.39733642 C361.00570275 435.96377607 361.00732646 437.53023656 361.01465647 439.09666258 C361.0963063 458.00934447 357.26679873 474.25343035 345.62297058 489.38768005 C344.54015808 490.90361755 344.54015808 490.90361755 343.43547058 492.45018005 C333.72567568 503.61486279 318.79552236 511.25088411 304.1002655 512.62327576 C281.90387429 513.77728017 266.61204318 506.70441947 246.99559021 497.01670837 C240.7317291 493.93193747 234.40120746 490.99772871 228.06047058 488.07518005 C218.24816444 483.54178653 208.45743627 478.96563145 198.68159485 474.35417175 C196.51181692 473.33170488 194.34092759 472.31163969 192.16960144 471.29246521 C190.74518612 470.62372001 189.3207882 469.95493774 187.89640808 469.28611755 C186.85067375 468.7951207 186.85067375 468.7951207 185.78381348 468.29420471 C181.80345854 466.42239373 177.83274767 464.53207393 173.87080383 462.62161255 C170.95975101 461.22087821 168.04036424 459.83764855 165.12297058 458.45018005 C164.09800476 457.94800964 163.07303894 457.44583923 162.01701355 456.92845154 C155.31629823 453.76599576 148.79148634 451.0715564 141.33537292 452.97019958 C138.68544227 453.97599254 136.17366546 455.15067582 133.62297058 456.38768005 C132.46055847 456.92376892 131.29814636 457.45985779 130.10050964 458.01219177 C126.70305234 459.58000764 123.32025276 461.17721341 119.9407196 462.7832489 C116.15800862 464.58068416 112.37058134 466.36814277 108.58390808 468.1572113 C107.44012695 468.69810394 107.44012695 468.69810394 106.27323914 469.24992371 C99.32106062 472.53582274 92.35064245 475.78123374 85.37297058 479.01268005 C77.59292114 482.61637748 69.81677094 486.22792257 62.05065918 489.86154175 C56.4068407 492.50201478 50.75906374 495.1339066 45.10978699 497.76268005 C42.85290513 498.81447992 40.5972839 499.86899082 38.34318542 500.92674255 C35.37765637 502.31769144 32.40731049 503.69777799 29.43547058 505.07518005 C28.5938739 505.47309753 27.75227722 505.87101501 26.88517761 506.2809906 C17.26169722 510.70987986 8.23258685 512.92635097 -2.37702942 512.76268005 C-3.34253723 512.75180359 -4.30804504 512.74092712 -5.30281067 512.72972107 C-12.05978038 512.57828357 -18.1062816 512.07377782 -24.37702942 509.38768005 C-25.49077942 508.91201599 -26.60452942 508.43635193 -27.75202942 507.9462738 C-44.59894767 500.1218969 -56.83301745 487.95860984 -63.37702942 470.38768005 C-66.15481277 462.42781347 -67.49958944 454.86004952 -67.50845718 446.39659023 C-67.51050982 445.72580007 -67.51256245 445.0550099 -67.51467729 444.36389276 C-67.52031594 442.12403597 -67.51889394 439.88424127 -67.51747131 437.64437866 C-67.52005675 436.01901811 -67.52307041 434.3936582 -67.52647471 432.76829916 C-67.53452702 428.30751835 -67.5363333 423.84675364 -67.53707218 419.38596642 C-67.53892583 414.57254807 -67.54647475 409.75913802 -67.5532074 404.94572449 C-67.56677883 394.42280846 -67.57281363 383.89989624 -67.57721806 373.37697291 C-67.57998258 366.80357644 -67.58422033 360.23018144 -67.58872223 353.65678596 C-67.60091351 335.44896379 -67.61121299 317.24114278 -67.61459732 299.03331661 C-67.61481689 297.86837788 -67.61503645 296.70343916 -67.61526267 295.50319925 C-67.61548095 294.33550793 -67.61569923 293.1678166 -67.61592412 291.96474069 C-67.61636758 289.5986404 -67.61681415 287.23254011 -67.61726379 284.86643982 C-67.61748522 283.69277784 -67.61770665 282.51911586 -67.61793479 281.30988837 C-67.6218816 262.29848602 -67.63933269 243.28712202 -67.66262332 224.27573448 C-67.68635469 204.74656943 -67.69879999 185.21742362 -67.69996524 165.68824393 C-67.70088101 154.72758587 -67.70660869 143.7669778 -67.72478485 132.80633354 C-67.74020996 123.4718838 -67.74529209 114.13749949 -67.73704675 104.80303942 C-67.73314875 100.04385584 -67.73402821 95.28480392 -67.7481041 90.52563667 C-67.76089402 86.16119267 -67.7596011 81.79697856 -67.74751338 77.43253464 C-67.74556517 75.86117054 -67.74859394 74.28978986 -67.75735775 72.71844899 C-67.82355743 60.03688559 -66.83402308 47.58641494 -60.75202942 36.20018005 C-60.40430481 35.53365417 -60.0565802 34.8671283 -59.69831848 34.18040466 C-50.89045435 17.87092744 -37.17097372 7.20295929 -19.52193165 1.84501553 C-12.97567208 0.08556713 -6.74645952 -0.03369016 0 0 Z M130.62297058 114.38768005 C127.10603255 119.47298234 125.49258015 123.92556315 125.50944519 130.06443787 C125.50952072 130.98509033 125.50959625 131.9057428 125.50967407 132.85429382 C125.51483536 133.83984253 125.51999664 134.82539124 125.52531433 135.84080505 C125.52743675 137.36384247 125.52743675 137.36384247 125.52960205 138.91764832 C125.53519542 142.15768898 125.54774673 145.39766031 125.56047058 148.63768005 C125.56548644 150.83559572 125.57004919 153.03351247 125.57414246 155.23143005 C125.58516268 160.61687034 125.60189425 166.00227024 125.62297058 171.38768005 C125.06444397 171.38101822 124.50591736 171.37435638 123.9304657 171.36749268 C118.09007046 171.30085485 112.24978416 171.25576197 106.40910339 171.22288513 C104.23262644 171.20784707 102.05617954 171.18741133 99.87980652 171.16136169 C96.7420355 171.12475915 93.60466698 171.10790345 90.46672058 171.0947113 C89.50181702 171.07922745 88.53691345 171.06374359 87.54277039 171.04779053 C80.37041265 171.04602467 75.02260296 172.22427763 68.87297058 176.13768005 C63.85783797 181.15281266 61.96681909 185.91738682 61.52140808 192.89549255 C61.76931485 198.97874319 64.33905028 204.10375975 68.62297058 208.38768005 C73.70827287 211.90461809 78.16085367 213.51807048 84.29972839 213.50120544 C85.68070709 213.50109215 85.68070709 213.50109215 87.08958435 213.50097656 C88.07513306 213.49581528 89.06068176 213.49065399 90.07609558 213.4853363 C91.599133 213.48321388 91.599133 213.48321388 93.15293884 213.48104858 C96.3929795 213.47545522 99.63295084 213.4629039 102.87297058 213.45018005 C105.07088625 213.4451642 107.268803 213.44060144 109.46672058 213.43650818 C114.85216087 213.42548796 120.23756077 213.40875639 125.62297058 213.38768005 C125.61630875 213.94620667 125.60964691 214.50473328 125.6027832 215.08018494 C125.53614538 220.92058018 125.4910525 226.76086648 125.45817566 232.60154724 C125.44313759 234.7780242 125.42270185 236.9544711 125.39665222 239.13084412 C125.36004968 242.26861513 125.34319398 245.40598365 125.33000183 248.54393005 C125.31451797 249.50883362 125.29903412 250.47373718 125.28308105 251.46788025 C125.2813152 258.64023798 126.45956816 263.98804767 130.37297058 270.13768005 C135.38810319 275.15281266 140.15267735 277.04383155 147.13078308 277.48924255 C153.21403372 277.24133579 158.33905028 274.67160036 162.62297058 270.38768005 C166.13990861 265.30237776 167.75336101 260.84979696 167.73649597 254.71092224 C167.73642044 253.79026978 167.73634491 252.86961731 167.73626709 251.92106628 C167.7311058 250.93551758 167.72594452 249.94996887 167.72062683 248.93455505 C167.71921188 247.91919678 167.71779694 246.9038385 167.71633911 245.85771179 C167.71074574 242.61767113 167.69819443 239.3776998 167.68547058 236.13768005 C167.68045473 233.93976439 167.67589197 231.74184763 167.67179871 229.54393005 C167.66077848 224.15848977 167.64404692 218.77308986 167.62297058 213.38768005 C168.18149719 213.39434189 168.7400238 213.40100372 169.31547546 213.40786743 C175.1558707 213.47450525 180.99615701 213.51959813 186.83683777 213.55247498 C189.01331473 213.56751304 191.18976163 213.58794878 193.36613464 213.61399841 C196.50390566 213.65060096 199.64127418 213.66745666 202.77922058 213.6806488 C203.74412415 213.69613266 204.70902771 213.71161652 205.70317078 213.72756958 C212.87552851 213.72933544 218.2233382 212.55108248 224.37297058 208.63768005 C229.38810319 203.62254744 231.27912208 198.85797328 231.72453308 191.87986755 C231.47662632 185.79661692 228.90689089 180.67160036 224.62297058 176.38768005 C219.53766829 172.87074202 215.08508749 171.25728962 208.94621277 171.27415466 C208.0255603 171.27423019 207.10490784 171.27430573 206.15635681 171.27438354 C205.17080811 171.27954483 204.1852594 171.28470612 203.16984558 171.2900238 C201.64680817 171.29214622 201.64680817 171.29214622 200.09300232 171.29431152 C196.85296166 171.29990489 193.61299033 171.31245621 190.37297058 171.32518005 C188.17505491 171.33019591 185.97713816 171.33475867 183.77922058 171.33885193 C178.3937803 171.34987215 173.00838039 171.36660372 167.62297058 171.38768005 C167.62963242 170.82915344 167.63629425 170.27062683 167.64315796 169.69517517 C167.70979578 163.85477993 167.75488866 158.01449363 167.7877655 152.17381287 C167.80280357 149.99733591 167.82323931 147.82088901 167.84928894 145.64451599 C167.88589148 142.50674497 167.90274719 139.36937646 167.91593933 136.23143005 C167.93142319 135.26652649 167.94690704 134.30162292 167.96286011 133.30747986 C167.96462596 126.13512212 166.78637301 120.78731244 162.87297058 114.63768005 C157.85783797 109.62254744 153.09326381 107.73152856 146.11515808 107.28611755 C140.03190745 107.53402432 134.90689089 110.10375975 130.62297058 114.38768005 Z " fill="#FFC106" transform="translate(109.37702941894531,-0.3876800537109375)"/>
</svg>
