<svg xmlns="http://www.w3.org/2000/svg">
  <!-- moon -->
  <symbol id="moon" viewBox="0 -960 960 960">
    <path
      d="M480-120q-150 0-255-105T120-480q0-150 105-255t255-105q14 0 27.5 1t26.5 3q-41 29-65.5 75.5T444-660q0 90 63 153t153 63q55 0 101-24.5t75-65.5q2 13 3 26.5t1 27.5q0 150-105 255T480-120Zm0-80q88 0 158-48.5T740-375q-20 5-40 8t-40 3q-123 0-209.5-86.5T364-660q0-20 3-40t8-40q-78 32-126.5 102T200-480q0 116 82 198t198 82Zm-10-270Z" />
  </symbol>

  <!-- sun -->
  <symbol id="sun" viewBox="0 -960 960 960">
    <path
      d="M480-360q50 0 85-35t35-85q0-50-35-85t-85-35q-50 0-85 35t-35 85q0 50 35 85t85 35Zm0 80q-83 0-141.5-58.5T280-480q0-83 58.5-141.5T480-680q83 0 141.5 58.5T680-480q0 83-58.5 141.5T480-280ZM200-440H40v-80h160v80Zm720 0H760v-80h160v80ZM440-760v-160h80v160h-80Zm0 720v-160h80v160h-80ZM256-650l-101-97 57-59 96 100-52 56Zm492 496-97-101 53-55 101 97-57 59Zm-98-550 97-101 59 57-100 96-56-52ZM154-212l101-97 55 53-97 101-59-57Zm326-268Z" />
  </symbol>

  <!-- refresh -->
  <svg id="refresh" viewBox="0 -960 960 960">
    <path
      d="M480-160q-134 0-227-93t-93-227q0-134 93-227t227-93q69 0 132 28.5T720-690v-110h80v280H520v-80h168q-32-56-87.5-88T480-720q-100 0-170 70t-70 170q0 100 70 170t170 70q77 0 139-44t87-116h84q-28 106-114 173t-196 67Z" />
  </svg>

  <!-- person -->
  <symbol id="person" viewBox="0 -960 960 960">
    <path
      d="M480-480q-66 0-113-47t-47-113q0-66 47-113t113-47q66 0 113 47t47 113q0 66-47 113t-113 47ZM160-160v-112q0-34 17.5-62.5T224-378q62-31 126-46.5T480-440q66 0 130 15.5T736-378q29 15 46.5 43.5T800-272v112H160Zm80-80h480v-32q0-11-5.5-20T700-306q-54-27-109-40.5T480-360q-56 0-111 13.5T260-306q-9 5-14.5 14t-5.5 20v32Zm240-320q33 0 56.5-23.5T560-640q0-33-23.5-56.5T480-720q-33 0-56.5 23.5T400-640q0 33 23.5 56.5T480-560Zm0-80Zm0 400Z" />
  </symbol>

  <!-- chats -->
  <symbol id="chats" viewBox="0 -960 960 960">
    <path
      d="M880-80 720-240H320q-33 0-56.5-23.5T240-320v-40h440q33 0 56.5-23.5T760-440v-280h40q33 0 56.5 23.5T880-640v560ZM160-473l47-47h393v-280H160v327ZM80-280v-520q0-33 23.5-56.5T160-880h440q33 0 56.5 23.5T680-800v280q0 33-23.5 56.5T600-440H240L80-280Zm80-240v-280 280Z" />
  </symbol>
</svg>