<svg xmlns="http://www.w3.org/2000/svg">
  <!-- moon -->
  <symbol id="moon" viewBox="0 -960 960 960">
    <path
      d="M480-120q-150 0-255-105T120-480q0-150 105-255t255-105q14 0 27.5 1t26.5 3q-41 29-65.5 75.5T444-660q0 90 63 153t153 63q55 0 101-24.5t75-65.5q2 13 3 26.5t1 27.5q0 150-105 255T480-120Zm0-80q88 0 158-48.5T740-375q-20 5-40 8t-40 3q-123 0-209.5-86.5T364-660q0-20 3-40t8-40q-78 32-126.5 102T200-480q0 116 82 198t198 82Zm-10-270Z" />
  </symbol>

  <!-- sun -->
  <symbol id="sun" viewBox="0 -960 960 960">
    <path
      d="M480-360q50 0 85-35t35-85q0-50-35-85t-85-35q-50 0-85 35t-35 85q0 50 35 85t85 35Zm0 80q-83 0-141.5-58.5T280-480q0-83 58.5-141.5T480-680q83 0 141.5 58.5T680-480q0 83-58.5 141.5T480-280ZM200-440H40v-80h160v80Zm720 0H760v-80h160v80ZM440-760v-160h80v160h-80Zm0 720v-160h80v160h-80ZM256-650l-101-97 57-59 96 100-52 56Zm492 496-97-101 53-55 101 97-57 59Zm-98-550 97-101 59 57-100 96-56-52ZM154-212l101-97 55 53-97 101-59-57Zm326-268Z" />
  </symbol>

  <!-- refresh -->
  <svg id="refresh" viewBox="0 -960 960 960">
    <path
      d="M480-160q-134 0-227-93t-93-227q0-134 93-227t227-93q69 0 132 28.5T720-690v-110h80v280H520v-80h168q-32-56-87.5-88T480-720q-100 0-170 70t-70 170q0 100 70 170t170 70q77 0 139-44t87-116h84q-28 106-114 173t-196 67Z" />
  </svg>

  <!-- person -->
  <symbol id="person" viewBox="0 -960 960 960">
    <path
      d="M480-480q-66 0-113-47t-47-113q0-66 47-113t113-47q66 0 113 47t47 113q0 66-47 113t-113 47ZM160-160v-112q0-34 17.5-62.5T224-378q62-31 126-46.5T480-440q66 0 130 15.5T736-378q29 15 46.5 43.5T800-272v112H160Zm80-80h480v-32q0-11-5.5-20T700-306q-54-27-109-40.5T480-360q-56 0-111 13.5T260-306q-9 5-14.5 14t-5.5 20v32Zm240-320q33 0 56.5-23.5T560-640q0-33-23.5-56.5T480-720q-33 0-56.5 23.5T400-640q0 33 23.5 56.5T480-560Zm0-80Zm0 400Z" />
  </symbol>

  <!-- chats -->
  <symbol id="chats" viewBox="0 -960 960 960">
    <path
      d="M880-80 720-240H320q-33 0-56.5-23.5T240-320v-40h440q33 0 56.5-23.5T760-440v-280h40q33 0 56.5 23.5T880-640v560ZM160-473l47-47h393v-280H160v327ZM80-280v-520q0-33 23.5-56.5T160-880h440q33 0 56.5 23.5T680-800v280q0 33-23.5 56.5T600-440H240L80-280Zm80-240v-280 280Z" />
  </symbol>

  <!-- info -->
  <symbol id="info" viewBox="0 -960 960 960">
    <path
      d="M440-280h80v-240h-80v240Zm40-320q17 0 28.5-11.5T520-640q0-17-11.5-28.5T480-680q-17 0-28.5 11.5T440-640q0 17 11.5 28.5T480-600Zm0 520q-83 0-156-31.5T197-197q-54-54-85.5-127T80-480q0-83 31.5-156T197-763q54-54 127-85.5T480-880q83 0 156 31.5T763-763q54 54 85.5 127T880-480q0 83-31.5 156T763-197q-54 54-127 85.5T480-80Zm0-80q134 0 227-93t93-227q0-134-93-227t-227-93q-134 0-227 93t-93 227q0 134 93 227t227 93Zm0-320Z" />
  </symbol>

  <!-- search -->
  <symbol id="search" viewBox="0 -960 960 960">
    <path
      d="M784-120 532-372q-30 24-69 38t-83 14q-109 0-184.5-75.5T120-580q0-109 75.5-184.5T380-840q109 0 184.5 75.5T640-580q0 44-14 83t-38 69l252 252-56 56ZM380-400q75 0 127.5-52.5T560-580q0-75-52.5-127.5T380-760q-75 0-127.5 52.5T200-580q0 75 52.5 127.5T380-400Z" />
  </symbol>

  <!-- check -->
  <symbol id="check" viewBox="0 -960 960 960">
    <path d="M382-240 154-468l57-57 171 171 367-367 57 57-424 424Z" />
  </symbol>

  <!-- block -->
  <symbol id="block" viewBox="0 -960 960 960">
    <path
      d="M480-80q-83 0-156-31.5T197-197q-54-54-85.5-127T80-480q0-83 31.5-156T197-763q54-54 127-85.5T480-880q83 0 156 31.5T763-763q54 54 85.5 127T880-480q0 83-31.5 156T763-197q-54 54-127 85.5T480-80Zm0-80q54 0 104-17.5t92-50.5L228-676q-33 42-50.5 92T160-480q0 134 93 227t227 93Zm252-124q33-42 50.5-92T800-480q0-134-93-227t-227-93q-54 0-104 17.5T284-732l448 448Z" />
  </symbol>

  <!-- close -->
  <symbol id="close" viewBox="0 -960 960 960">
    <path d="m256-200-56-56 224-224-224-224 56-56 224 224 224-224 56 56-224 224 224 224-56 56-224-224-224 224Z" />
  </symbol>

  <!-- empty-box -->
  <symbol id="empty-box" viewBox="0 0 256 256">
    <g transform="translate(0, 256) scale(0.1,-0.1)" stroke="none">
      <path d="M642 2248 c-271 -156 -474 -280 -478 -290 -3 -11 24 -67 71 -148 l76
        -131 -76 -134 c-43 -75 -75 -141 -72 -149 3 -8 40 -34 81 -58 l76 -43 2 -355
        3 -355 470 -272 c259 -149 476 -272 483 -272 12 -1 918 517 950 541 9 8 12 93
        12 362 l1 351 75 43 c41 24 77 49 81 58 3 8 -29 74 -72 149 l-76 134 76 131
        c48 82 74 137 71 148 -4 10 -198 128 -458 279 -531 305 -494 286 -516 279 -9
        -3 -44 -53 -76 -111 -33 -58 -63 -105 -66 -105 -3 0 -32 46 -65 103 -58 101
        -70 117 -90 117 -6 0 -223 -123 -483 -272z m527 76 c29 -53 49 -99 45 -104 -5
        -4 -187 -110 -404 -235 -217 -125 -405 -233 -417 -241 -20 -13 -24 -9 -78 87
        -31 55 -55 102 -53 104 1 1 93 55 203 118 110 63 297 171 415 240 118 69 220
        126 225 126 6 0 34 -43 64 -95z m709 -145 c229 -133 419 -243 420 -244 2 -2
        -22 -49 -53 -105 -39 -68 -61 -98 -69 -92 -6 5 -193 114 -416 242 -223 128
        -409 236 -414 240 -8 8 93 199 107 200 4 0 195 -108 425 -241z m-182 -255
        c225 -130 412 -239 416 -242 4 -4 -182 -116 -412 -249 l-419 -242 -243 141
        c-134 77 -323 186 -420 241 -97 56 -173 105 -170 109 11 10 825 478 833 478 4
        0 191 -106 415 -236z m-899 -545 c230 -133 420 -244 422 -246 3 -2 -2 -16 -11
        -31 -8 -15 -34 -59 -57 -99 l-41 -72 -228 131 c-510 293 -607 350 -615 358 -5
        4 -2 18 6 31 8 13 33 57 56 97 23 39 44 72 46 72 2 0 192 -109 422 -241z
        m1450 142 c30 -52 50 -98 46 -102 -10 -10 -825 -480 -836 -482 -8 -2 -117 178
        -117 191 0 4 161 99 357 212 196 113 384 221 417 241 34 21 65 36 70 35 5 -1
        33 -44 63 -95z m-1487 -481 c190 -110 356 -200 368 -200 16 0 32 19 66 78 l46
        77 0 -423 0 -422 -48 27 c-26 16 -215 125 -420 243 l-372 214 0 303 c0 167 3
        303 6 303 4 0 163 -90 354 -200z m1400 -103 l0 -303 -397 -229 c-219 -126
        -408 -235 -420 -243 l-23 -14 0 423 0 424 46 -77 c34 -60 50 -78 67 -78 12 0
        177 90 367 200 190 109 348 199 353 200 4 0 7 -136 7 -303z" />
    </g>
  </symbol>

  <!-- pending -->
  <symbol id="pending" viewBox="0 -960 960 960">
    <path
      d="M204-318q-22-38-33-78t-11-82q0-134 93-228t227-94h7l-64-64 56-56 160 160-160 160-56-56 64-64h-7q-100 0-170 70.5T240-478q0 26 6 51t18 49l-60 60ZM481-40 321-200l160-160 56 56-64 64h7q100 0 170-70.5T720-482q0-26-6-51t-18-49l60-60q22 38 33 78t11 82q0 134-93 228t-227 94h-7l64 64-56 56Z" />
  </symbol>

  <!-- error -->
  <symbol viewBox="0 -960 960 960">
    <path d=" M480-280q17 0 28.5-11.5T520-320q0-17-11.5-28.5T480-360q-17 0-28.5 11.5T440-320q0 17 11.5
    28.5T480-280Zm-40-160h80v-240h-80v240Zm40 360q-83 0-156-31.5T197-197q-54-54-85.5-127T80-480q0-83
    31.5-156T197-763q54-54 127-85.5T480-880q83 0 156 31.5T763-763q54 54 85.5 127T880-480q0 83-31.5 156T763-197q-54
    54-127 85.5T480-80Zm0-80q134 0 227-93t93-227q0-134-93-227t-227-93q-134 0-227 93t-93 227q0 134 93 227t227
    93Zm0-320Z" />
  </symbol>

</svg>